<svg xmlns="http://www.w3.org/2000/svg" width="100" height="95" fill="none" viewBox="0 0 100 95"><g clip-path="url(#a)"><path fill="#0093C9" d="M74.82 19.74h-13L72.46 9.32l-3.62-3.56-13.2 12.94-3.62 3.55v.01l3.62 3.57v-.01l13.2 12.94 3.62-3.56-10.62-10.42h12.99v-5.04Z"/><path fill="#50C8E7" d="m47.98 22.25-3.63-3.56-13.2-12.93-3.62 3.56 10.62 10.42H25.16v5.04h13L27.52 35.2l3.63 3.56 13.18-12.94h.01l3.63-3.55h-.01l.01-.02Z"/><path fill="#00ACD8" d="M67 39.86 53.82 26.91l-3.62-3.57-.01.01-3.64 3.55.01.01-13.18 12.95L37 43.42l10.63-10.43v12.75h5.13V33l10.62 10.43L67 39.86Z"/><path fill="#002F87" d="M50.12 21 66.84 4.35s-10.25-10.42-16.72 1c-6.09-11.42-16.73-1-16.73-1L50.12 21ZM4.46 57.86c0-1.3-.66-2.01-1.86-2.01H.11v1.06h2.22c.55 0 .82.3.82.95v3.4H0v1.07h5.23v-1.07h-.77v-3.4Zm3.04-2.01H5.56v1.08h.9v2.7l1.3-.18v-3.37a.26.26 0 0 0-.25-.23m5.77 2.01c0-1.3-.66-2.01-1.85-2.01h-2.5v1.06h2.22c.55 0 .83.3.83.95v3.4H8.82v1.07h5.24v-1.07h-.77v-3.4Zm7.57-.95h.54v-1.06h-1.52l-1.14 2.99-2.42-3.28-.92.8 1 1.33-1.47 4.63h1.32l1.1-3.58.95 1.43 2.36 2.4.9-.9-1.92-1.88 1.22-2.88Zm3.61 1.65h-2.42v1.07h2.42v-1.07Zm5.29-2.35a.35.35 0 0 0-.36-.36H25.8v-1.52h-1.29v2.58h3.82l-2.51 5.42h1.38l2.53-5.4.01-.72Zm4.07-.36H30.5v5.42h-.95v1.06h1.97a.28.28 0 0 0 .28-.27V56.9h1.75c.56 0 .82.3.82.95v4.47h1.3v-4.47c0-1.3-.66-2.01-1.86-2.01m7.96.01h-1.94v1.09h.9v2.68l1.3-.17v-3.37a.26.26 0 0 0-.26-.23m7.03 1.06h.55v-1.07h-1.52l-1.14 3-2.42-3.3-.93.82 1.01 1.33-1.47 4.63h1.32l1.1-3.6.95 1.44 2.36 2.4.9-.9-1.93-1.87 1.23-2.88Zm3.32-1.06h-1.84v1.06h.8v5.42h1.3v-6.25a.24.24 0 0 0-.26-.24m6.46.01H54.1l-.55 3.5a.51.51 0 0 0 .11.4.45.45 0 0 0 .34.16h1.86V58.9h-1.01l.28-2h2.4v3.18c0 .83-.36 1.18-1.21 1.18h-2.77v1.07h3.23a1.97 1.97 0 0 0 2.03-2.04v-4.2l-.02-.1a.25.25 0 0 0-.24-.15m5.31 0h-4.02v1.07h3.02v5.42h1.3v-6.21a.28.28 0 0 0-.09-.2.27.27 0 0 0-.2-.08m4.97.01h-3.23v1.06h2.98c.55 0 .82.3.82.95v4.47h1.28v-4.47c0-1.3-.65-2.01-1.85-2.01Z"/><path fill="#002F87" d="M65.6 62.33h1.3v-3.75l-1.3.16v3.6Zm7.76-5.42h.82l.62 5.42h1.34l-.73-5.42h1.02v-1.06h-3.07v1.06Zm7.95-1.06h-4.16v1.06h3.15v3.17c0 .83-.36 1.18-1.21 1.18h-1.94v1.07h2.4a1.98 1.98 0 0 0 2.04-2.04v-4.2a.26.26 0 0 0-.18-.23.26.26 0 0 0-.1-.02Zm5.3 0H82.6v1.06h3.02v5.42h1.3v-6.21a.27.27 0 0 0-.19-.26.28.28 0 0 0-.11-.02m4.58 0h-3.27v1.07h.9l-.67 5.42h1.33l.59-5.42h1.12a.9.9 0 0 1 .7.24 1.44 1.44 0 0 1 .42 1.03v3.09h-1.54v1.06h2.52l.3-.83v-3.32a2.26 2.26 0 0 0-2.41-2.33m6.95 0H94.9v1.06h2.98c.55 0 .83.3.83.95v4.47H100v-4.47c0-1.3-.66-2.01-1.85-2.01"/><path fill="#002F87" d="M94.9 62.33h1.3v-3.75l-1.3.16v3.6ZM70.6 76.95v-8.4h-.98V67.1h2.56a.24.24 0 0 1 .26.23v8.57c.99.38 2.03.6 3.09.66V67.1h1.85v9.48c2.04-.23 3.27-1.52 3.27-2.76V67.1h1.87v6.68c0 2.58-2.63 4.34-6 4.34a16.9 16.9 0 0 1-5.92-1.17v.01Zm-7.87-3.17v-3.41c0-1.19-.64-1.82-1.94-1.82h-3.21v5.23a2.75 2.75 0 0 0 2.69 2.88c2.05 0 2.46-1.74 2.46-2.88Zm-7-.03V67.1h5.8c1.76 0 3.05 1.18 3.05 3.32v3.34a4.03 4.03 0 0 1-4.33 4.36 4.23 4.23 0 0 1-4.54-4.36h.02Zm-4.68 4.19v-9.4h-1.4v-1.45h3.02c.14 0 .25.08.25.21v10.64h-1.87Zm-5.3 0v-9.4h-5.22v-1.45h6.78a.28.28 0 0 1 .23.06.28.28 0 0 1 .1.22v10.58l-1.9-.01Zm-7.57.32-3.94-4.02-1.86-2.8-1.97 6.48h-1.89l2.5-7.87-1.7-2.24 1.3-1.14 4.29 5.8 2.05-5.38h2.31v1.46h-.86l-2.23 5.23 3.29 3.21-1.3 1.27ZM24.9 73.77v-3.4c0-1.19-.64-1.82-1.94-1.82h-3.2v5.23a2.75 2.75 0 0 0 2.7 2.88c2.05 0 2.45-1.74 2.45-2.88l-.01-.01Zm-6.98-.02V67.1h5.8c1.77 0 3.05 1.18 3.05 3.31v3.35a4.03 4.03 0 0 1-4.33 4.36 4.22 4.22 0 0 1-4.52-4.36ZM6.4 71.36h1.85v9.97H6.4v-9.97Zm3.73 6.58v-.8L14 68.55H6.1V67.1h9.47a.33.33 0 0 1 .34.31v1.35l-4.17 9.2h-1.6Zm-8.48-4.71v-4.64H.08v-1.5h3.18a.25.25 0 0 1 .25.21v5.67l-1.86.26Zm86.58-2.63-.6-.23.5-2.76v-1.94h1.93v1.78l-1.83 3.15Zm-3.04 0-.57-.23.5-2.76v-1.94h1.92v1.78l-1.85 3.15Zm6.39 8.49-.5-1.61 2.98-.93-2.52-9.46h1.88l2.27 9.02c1.25-.4 2.45-.91 2.45-2.6v-4.95h-1.18v-1.47h2.76a.28.28 0 0 1 .28.26v6.14a3.94 3.94 0 0 1-2.82 3.68l-5.6 1.92Z"/><path fill="#0093C9" d="M29.27 86.52c0-2.28-1.13-3.54-3.17-3.54h-4.25v1.8h3.8c.99 0 1.47.58 1.47 1.75v6.14h-5.48v1.8h8.97v-1.8h-1.34v-6.15Zm5.1-3.54h-3.14v1.8h1.4v9.69h2.15V83.34l-.03-.15a.37.37 0 0 0-.37-.21Zm10.55 0h-6.25v-2.7h-2.13v4.5h6.63l-4.33 9.64-.03.05h2.29l4.38-9.62V83.6a.55.55 0 0 0-.58-.6m5.1-.02h-3.3v1.84h1.56v4.79l2.13-.3h.03v-5.97a.4.4 0 0 0-.4-.36Zm9.3 0h-7.16v1.8h5.45v5.72c0 1.5-.66 2.17-2.14 2.17h-3.31v1.8h4.1a3.43 3.43 0 0 0 3.49-3.6v-7.5a.4.4 0 0 0-.42-.39Zm5.7 0h-3.32v1.84h1.57v4.8l2.12-.3h.03v-5.98a.4.4 0 0 0-.4-.36m10.03 7 2.15-5.2h.91v-1.8h-2.55l-2 5.4-4.18-5.87-.02-.03-1.51 1.35-.02.02 1.73 2.36L67 94.39l-.01.04h2.19l1.91-6.47 1.7 2.64 4.04 4.22.03.03 1.45-1.5.02-.03-3.3-3.34Z"/></g><defs><clipPath id="a"><path fill="#fff" d="M0 0h100v94.84H0z"/></clipPath></defs></svg>